<svg width="256" height="256" viewBox="0 0 256 256" fill="none" xmlns="http://www.w3.org/2000/svg">
<path d="M128 140.8C124.118 140.754 120.316 141.904 117.104 144.093C113.893 146.283 111.427 149.408 110.038 153.047C108.649 156.686 108.404 160.665 109.336 164.449C110.268 168.232 112.332 171.638 115.25 174.208V192C115.25 195.395 116.593 198.651 118.984 201.051C121.375 203.451 124.618 204.8 128 204.8C131.382 204.8 134.625 203.451 137.016 201.051C139.407 198.651 140.75 195.395 140.75 192V174.208C143.668 171.638 145.732 168.232 146.664 164.449C147.596 160.665 147.351 156.686 145.962 153.047C144.573 149.408 142.107 146.283 138.896 144.093C135.684 141.904 131.882 140.754 128 140.8ZM191.75 89.6V64C191.75 47.0261 185.033 30.7475 173.078 18.7452C161.123 6.74284 144.908 0 128 0C111.092 0 94.8774 6.74284 82.9219 18.7452C70.9665 30.7475 64.25 47.0261 64.25 64V89.6C54.1055 89.6 44.3764 93.6457 37.2032 100.847C30.0299 108.048 26 117.816 26 128V217.6C26 227.784 30.0299 237.552 37.2032 244.753C44.3764 251.954 54.1055 256 64.25 256H191.75C201.895 256 211.624 251.954 218.797 244.753C225.97 237.552 230 227.784 230 217.6V128C230 117.816 225.97 108.048 218.797 100.847C211.624 93.6457 201.895 89.6 191.75 89.6ZM89.75 64C89.75 53.8157 93.7799 44.0485 100.953 36.8471C108.126 29.6457 117.855 25.6 128 25.6C138.145 25.6 147.874 29.6457 155.047 36.8471C162.22 44.0485 166.25 53.8157 166.25 64V89.6H89.75V64ZM204.5 217.6C204.5 220.995 203.157 224.251 200.766 226.651C198.375 229.051 195.132 230.4 191.75 230.4H64.25C60.8685 230.4 57.6255 229.051 55.2344 226.651C52.8433 224.251 51.5 220.995 51.5 217.6V128C51.5 124.605 52.8433 121.35 55.2344 118.949C57.6255 116.549 60.8685 115.2 64.25 115.2H191.75C195.132 115.2 198.375 116.549 200.766 118.949C203.157 121.35 204.5 124.605 204.5 128V217.6Z" fill="white"/>
</svg>
