<svg width="256" height="256" viewBox="0 0 256 256" fill="none" xmlns="http://www.w3.org/2000/svg">
<rect y="32" width="256" height="192" rx="16" fill="url(#paint0_linear_1036_9)"/>
<path d="M0 193H256V208C256 216.837 248.837 224 240 224H16C7.16344 224 0 216.837 0 208V193Z" fill="#1F1F1F"/>
<rect x="24" y="58" width="208" height="117" rx="8" fill="white"/>
<path d="M24 66C24 61.5817 27.5817 58 32 58H224C228.418 58 232 61.5817 232 66V82H24V66Z" fill="#1F1F1F"/>
<rect x="214" y="64" width="12" height="12" rx="6" fill="#ED3859"/>
<rect x="120" y="200" width="16" height="16" rx="4" fill="white"/>
<rect x="96" y="200" width="16" height="16" rx="4" fill="white"/>
<rect x="144" y="200" width="16" height="16" rx="4" fill="white"/>
<path d="M128 131.2C127.011 131.189 126.041 131.476 125.223 132.023C124.404 132.571 123.775 133.352 123.421 134.262C123.067 135.172 123.005 136.166 123.242 137.112C123.48 138.058 124.006 138.909 124.75 139.552V144C124.75 144.849 125.092 145.663 125.702 146.263C126.311 146.863 127.138 147.2 128 147.2C128.862 147.2 129.689 146.863 130.298 146.263C130.908 145.663 131.25 144.849 131.25 144V139.552C131.994 138.909 132.52 138.058 132.758 137.112C132.995 136.166 132.933 135.172 132.579 134.262C132.225 133.352 131.596 132.571 130.777 132.023C129.959 131.476 128.989 131.189 128 131.2V131.2ZM144.25 118.4V112C144.25 107.757 142.538 103.687 139.49 100.686C136.443 97.6857 132.31 96 128 96C123.69 96 119.557 97.6857 116.51 100.686C113.462 103.687 111.75 107.757 111.75 112V118.4C109.164 118.4 106.684 119.411 104.856 121.212C103.027 123.012 102 125.454 102 128V150.4C102 152.946 103.027 155.388 104.856 157.188C106.684 158.989 109.164 160 111.75 160H144.25C146.836 160 149.316 158.989 151.144 157.188C152.973 155.388 154 152.946 154 150.4V128C154 125.454 152.973 123.012 151.144 121.212C149.316 119.411 146.836 118.4 144.25 118.4ZM118.25 112C118.25 109.454 119.277 107.012 121.106 105.212C122.934 103.411 125.414 102.4 128 102.4C130.586 102.4 133.066 103.411 134.894 105.212C136.723 107.012 137.75 109.454 137.75 112V118.4H118.25V112ZM147.5 150.4C147.5 151.249 147.158 152.063 146.548 152.663C145.939 153.263 145.112 153.6 144.25 153.6H111.75C110.888 153.6 110.061 153.263 109.452 152.663C108.842 152.063 108.5 151.249 108.5 150.4V128C108.5 127.151 108.842 126.337 109.452 125.737C110.061 125.137 110.888 124.8 111.75 124.8H144.25C145.112 124.8 145.939 125.137 146.548 125.737C147.158 126.337 147.5 127.151 147.5 128V150.4Z" fill="#1F1F1F"/>
<path d="M161 94L95 160" stroke="#ED3859" stroke-width="8" stroke-linecap="round"/>
<rect x="30" y="64" width="48" height="12" rx="4" fill="white"/>
<rect x="84" y="64" width="48" height="12" rx="4" fill="#BABABA"/>
<rect x="138" y="64" width="48" height="12" rx="4" fill="#BABABA"/>
<defs>
<linearGradient id="paint0_linear_1036_9" x1="128" y1="32" x2="128" y2="224" gradientUnits="userSpaceOnUse">
<stop stop-color="#57F5FF"/>
<stop offset="1" stop-color="#0065FD"/>
</linearGradient>
</defs>
</svg>
