<svg width="256" height="256" viewBox="0 0 256 256" fill="none" xmlns="http://www.w3.org/2000/svg">
<path d="M128 140.794C124.118 140.748 120.316 141.898 117.104 144.088C113.893 146.277 111.427 149.402 110.038 153.042C108.649 156.681 108.404 160.66 109.336 164.444C110.268 168.227 112.332 171.633 115.25 174.204V191.997C115.25 195.392 116.593 198.647 118.984 201.048C121.375 203.449 124.618 204.797 128 204.797C131.382 204.797 134.625 203.449 137.016 201.048C139.407 198.647 140.75 195.392 140.75 191.997V174.204C143.668 171.633 145.732 168.227 146.664 164.444C147.596 160.66 147.351 156.681 145.962 153.042C144.573 149.402 142.107 146.277 138.896 144.088C135.684 141.898 131.882 140.748 128 140.794ZM191.75 89.5912H89.75V63.9899C89.7314 56.3887 91.9601 48.9529 96.1538 42.6243C100.348 36.2957 106.318 31.359 113.308 28.4393C120.298 25.5197 127.994 24.7484 135.422 26.2233C142.849 27.6982 149.673 31.3529 155.03 36.7244C159.823 41.6408 163.252 47.7308 164.975 54.3893C165.394 56.0199 166.128 57.5518 167.136 58.8974C168.144 60.243 169.407 61.3761 170.851 62.2319C172.296 63.0878 173.894 63.6496 175.555 63.8853C177.215 64.1211 178.906 64.0261 180.53 63.6058C182.154 63.1856 183.68 62.4483 185.02 61.436C186.361 60.4238 187.489 59.1564 188.342 57.7062C189.194 56.2561 189.754 54.6515 189.988 52.9843C190.223 51.317 190.129 49.6196 189.71 47.989C186.805 36.9139 181.044 26.8031 173.007 18.6755C164.085 9.74527 152.727 3.66969 140.367 1.21589C128.007 -1.23791 115.201 0.0401101 103.564 4.88857C91.9275 9.73703 81.9827 17.9385 74.9856 28.4574C67.9884 38.9763 64.2527 51.3409 64.25 63.9899V89.5912C54.1055 89.5912 44.3764 93.6371 37.2032 100.839C30.0299 108.041 26 117.808 26 127.993V217.598C26 227.783 30.0299 237.551 37.2032 244.752C44.3764 251.954 54.1055 256 64.25 256H191.75C201.895 256 211.624 251.954 218.797 244.752C225.97 237.551 230 227.783 230 217.598V127.993C230 117.808 225.97 108.041 218.797 100.839C211.624 93.6371 201.895 89.5912 191.75 89.5912ZM204.5 217.598C204.5 220.993 203.157 224.249 200.766 226.649C198.375 229.05 195.132 230.399 191.75 230.399H64.25C60.8685 230.399 57.6255 229.05 55.2344 226.649C52.8433 224.249 51.5 220.993 51.5 217.598V127.993C51.5 124.598 52.8433 121.342 55.2344 118.942C57.6255 116.541 60.8685 115.193 64.25 115.193H191.75C195.132 115.193 198.375 116.541 200.766 118.942C203.157 121.342 204.5 124.598 204.5 127.993V217.598Z" fill="white"/>
</svg>
